<?xml version="1.0" encoding="UTF-8"?>
<svg xmlns="http://www.w3.org/2000/svg" xmlns:xlink="http://www.w3.org/1999/xlink" width="3873" height="3873" viewBox="0 0 3873 3873">
<defs>
<clipPath id="clip-0">
<path clip-rule="evenodd" d="M 1936.5 0 C 3006 0 3873 867 3873 1936.5 C 3873 3006 3006 3873 1936.5 3873 C 867 3873 0 3006 0 1936.5 C 0 867 867 0 1936.5 0 "/>
</clipPath>
<radialGradient id="radial-pattern-0" gradientUnits="userSpaceOnUse" cx="0" cy="0" fx="0" fy="0" r="1549.19" gradientTransform="matrix(1, 0, 0, 1, 1936.5, 1936.5)">
<stop offset="0" stop-color="rgb(33.201599%, 33.201599%, 33.201599%)" stop-opacity="1"/>
<stop offset="0.0078125" stop-color="rgb(32.876587%, 32.876587%, 32.876587%)" stop-opacity="1"/>
<stop offset="0.0195312" stop-color="rgb(32.485962%, 32.485962%, 32.485962%)" stop-opacity="1"/>
<stop offset="0.03125" stop-color="rgb(32.095337%, 32.095337%, 32.095337%)" stop-opacity="1"/>
<stop offset="0.0429688" stop-color="rgb(31.704712%, 31.704712%, 31.704712%)" stop-opacity="1"/>
<stop offset="0.0546875" stop-color="rgb(31.314087%, 31.314087%, 31.314087%)" stop-opacity="1"/>
<stop offset="0.0664062" stop-color="rgb(30.923462%, 30.923462%, 30.923462%)" stop-opacity="1"/>
<stop offset="0.078125" stop-color="rgb(30.532837%, 30.532837%, 30.532837%)" stop-opacity="1"/>
<stop offset="0.0898438" stop-color="rgb(30.142212%, 30.142212%, 30.142212%)" stop-opacity="1"/>
<stop offset="0.101562" stop-color="rgb(29.751587%, 29.751587%, 29.751587%)" stop-opacity="1"/>
<stop offset="0.113281" stop-color="rgb(29.360962%, 29.360962%, 29.360962%)" stop-opacity="1"/>
<stop offset="0.125" stop-color="rgb(28.970337%, 28.970337%, 28.970337%)" stop-opacity="1"/>
<stop offset="0.136719" stop-color="rgb(28.579712%, 28.579712%, 28.579712%)" stop-opacity="1"/>
<stop offset="0.148438" stop-color="rgb(28.189087%, 28.189087%, 28.189087%)" stop-opacity="1"/>
<stop offset="0.160156" stop-color="rgb(27.798462%, 27.798462%, 27.798462%)" stop-opacity="1"/>
<stop offset="0.171875" stop-color="rgb(27.407837%, 27.407837%, 27.407837%)" stop-opacity="1"/>
<stop offset="0.183594" stop-color="rgb(27.017212%, 27.017212%, 27.017212%)" stop-opacity="1"/>
<stop offset="0.195312" stop-color="rgb(26.626587%, 26.626587%, 26.626587%)" stop-opacity="1"/>
<stop offset="0.207031" stop-color="rgb(26.235962%, 26.235962%, 26.235962%)" stop-opacity="1"/>
<stop offset="0.21875" stop-color="rgb(25.845337%, 25.845337%, 25.845337%)" stop-opacity="1"/>
<stop offset="0.230469" stop-color="rgb(25.454712%, 25.454712%, 25.454712%)" stop-opacity="1"/>
<stop offset="0.242188" stop-color="rgb(25.064087%, 25.064087%, 25.064087%)" stop-opacity="1"/>
<stop offset="0.253906" stop-color="rgb(24.737549%, 24.737549%, 24.737549%)" stop-opacity="1"/>
<stop offset="0.261719" stop-color="rgb(24.478149%, 24.478149%, 24.478149%)" stop-opacity="1"/>
<stop offset="0.269531" stop-color="rgb(24.217224%, 24.217224%, 24.217224%)" stop-opacity="1"/>
<stop offset="0.277344" stop-color="rgb(23.956299%, 23.956299%, 23.956299%)" stop-opacity="1"/>
<stop offset="0.285156" stop-color="rgb(23.696899%, 23.696899%, 23.696899%)" stop-opacity="1"/>
<stop offset="0.292969" stop-color="rgb(23.435974%, 23.435974%, 23.435974%)" stop-opacity="1"/>
<stop offset="0.300781" stop-color="rgb(23.175049%, 23.175049%, 23.175049%)" stop-opacity="1"/>
<stop offset="0.308594" stop-color="rgb(22.915649%, 22.915649%, 22.915649%)" stop-opacity="1"/>
<stop offset="0.316406" stop-color="rgb(22.654724%, 22.654724%, 22.654724%)" stop-opacity="1"/>
<stop offset="0.324219" stop-color="rgb(22.393799%, 22.393799%, 22.393799%)" stop-opacity="1"/>
<stop offset="0.332031" stop-color="rgb(22.134399%, 22.134399%, 22.134399%)" stop-opacity="1"/>
<stop offset="0.339844" stop-color="rgb(21.873474%, 21.873474%, 21.873474%)" stop-opacity="1"/>
<stop offset="0.347656" stop-color="rgb(21.612549%, 21.612549%, 21.612549%)" stop-opacity="1"/>
<stop offset="0.355469" stop-color="rgb(21.353149%, 21.353149%, 21.353149%)" stop-opacity="1"/>
<stop offset="0.363281" stop-color="rgb(21.092224%, 21.092224%, 21.092224%)" stop-opacity="1"/>
<stop offset="0.371094" stop-color="rgb(20.831299%, 20.831299%, 20.831299%)" stop-opacity="1"/>
<stop offset="0.378906" stop-color="rgb(20.571899%, 20.571899%, 20.571899%)" stop-opacity="1"/>
<stop offset="0.386719" stop-color="rgb(20.310974%, 20.310974%, 20.310974%)" stop-opacity="1"/>
<stop offset="0.394531" stop-color="rgb(20.050049%, 20.050049%, 20.050049%)" stop-opacity="1"/>
<stop offset="0.402344" stop-color="rgb(19.790649%, 19.790649%, 19.790649%)" stop-opacity="1"/>
<stop offset="0.410156" stop-color="rgb(19.529724%, 19.529724%, 19.529724%)" stop-opacity="1"/>
<stop offset="0.417969" stop-color="rgb(19.268799%, 19.268799%, 19.268799%)" stop-opacity="1"/>
<stop offset="0.425781" stop-color="rgb(19.009399%, 19.009399%, 19.009399%)" stop-opacity="1"/>
<stop offset="0.433594" stop-color="rgb(18.748474%, 18.748474%, 18.748474%)" stop-opacity="1"/>
<stop offset="0.441406" stop-color="rgb(18.487549%, 18.487549%, 18.487549%)" stop-opacity="1"/>
<stop offset="0.449219" stop-color="rgb(18.228149%, 18.228149%, 18.228149%)" stop-opacity="1"/>
<stop offset="0.457031" stop-color="rgb(17.967224%, 17.967224%, 17.967224%)" stop-opacity="1"/>
<stop offset="0.464844" stop-color="rgb(17.706299%, 17.706299%, 17.706299%)" stop-opacity="1"/>
<stop offset="0.472656" stop-color="rgb(17.446899%, 17.446899%, 17.446899%)" stop-opacity="1"/>
<stop offset="0.480469" stop-color="rgb(17.185974%, 17.185974%, 17.185974%)" stop-opacity="1"/>
<stop offset="0.488281" stop-color="rgb(16.925049%, 16.925049%, 16.925049%)" stop-opacity="1"/>
<stop offset="0.496094" stop-color="rgb(16.665649%, 16.665649%, 16.665649%)" stop-opacity="1"/>
<stop offset="0.503906" stop-color="rgb(16.340637%, 16.340637%, 16.340637%)" stop-opacity="1"/>
<stop offset="0.515625" stop-color="rgb(15.950012%, 15.950012%, 15.950012%)" stop-opacity="1"/>
<stop offset="0.527344" stop-color="rgb(15.559387%, 15.559387%, 15.559387%)" stop-opacity="1"/>
<stop offset="0.539062" stop-color="rgb(15.168762%, 15.168762%, 15.168762%)" stop-opacity="1"/>
<stop offset="0.550781" stop-color="rgb(14.778137%, 14.778137%, 14.778137%)" stop-opacity="1"/>
<stop offset="0.5625" stop-color="rgb(14.387512%, 14.387512%, 14.387512%)" stop-opacity="1"/>
<stop offset="0.574219" stop-color="rgb(13.996887%, 13.996887%, 13.996887%)" stop-opacity="1"/>
<stop offset="0.585938" stop-color="rgb(13.606262%, 13.606262%, 13.606262%)" stop-opacity="1"/>
<stop offset="0.597656" stop-color="rgb(13.215637%, 13.215637%, 13.215637%)" stop-opacity="1"/>
<stop offset="0.609375" stop-color="rgb(12.825012%, 12.825012%, 12.825012%)" stop-opacity="1"/>
<stop offset="0.621094" stop-color="rgb(12.434387%, 12.434387%, 12.434387%)" stop-opacity="1"/>
<stop offset="0.632812" stop-color="rgb(12.107849%, 12.107849%, 12.107849%)" stop-opacity="1"/>
<stop offset="0.640625" stop-color="rgb(11.846924%, 11.846924%, 11.846924%)" stop-opacity="1"/>
<stop offset="0.648438" stop-color="rgb(11.587524%, 11.587524%, 11.587524%)" stop-opacity="1"/>
<stop offset="0.65625" stop-color="rgb(11.326599%, 11.326599%, 11.326599%)" stop-opacity="1"/>
<stop offset="0.664062" stop-color="rgb(11.065674%, 11.065674%, 11.065674%)" stop-opacity="1"/>
<stop offset="0.671875" stop-color="rgb(10.806274%, 10.806274%, 10.806274%)" stop-opacity="1"/>
<stop offset="0.679688" stop-color="rgb(10.545349%, 10.545349%, 10.545349%)" stop-opacity="1"/>
<stop offset="0.6875" stop-color="rgb(10.284424%, 10.284424%, 10.284424%)" stop-opacity="1"/>
<stop offset="0.695312" stop-color="rgb(10.025024%, 10.025024%, 10.025024%)" stop-opacity="1"/>
<stop offset="0.703125" stop-color="rgb(9.764099%, 9.764099%, 9.764099%)" stop-opacity="1"/>
<stop offset="0.710938" stop-color="rgb(9.503174%, 9.503174%, 9.503174%)" stop-opacity="1"/>
<stop offset="0.71875" stop-color="rgb(9.243774%, 9.243774%, 9.243774%)" stop-opacity="1"/>
<stop offset="0.726562" stop-color="rgb(8.982849%, 8.982849%, 8.982849%)" stop-opacity="1"/>
<stop offset="0.734375" stop-color="rgb(8.721924%, 8.721924%, 8.721924%)" stop-opacity="1"/>
<stop offset="0.742188" stop-color="rgb(8.462524%, 8.462524%, 8.462524%)" stop-opacity="1"/>
<stop offset="0.75" stop-color="rgb(8.201599%, 8.201599%, 8.201599%)" stop-opacity="1"/>
<stop offset="0.757812" stop-color="rgb(7.876587%, 7.876587%, 7.876587%)" stop-opacity="1"/>
<stop offset="0.769531" stop-color="rgb(7.485962%, 7.485962%, 7.485962%)" stop-opacity="1"/>
<stop offset="0.78125" stop-color="rgb(7.095337%, 7.095337%, 7.095337%)" stop-opacity="1"/>
<stop offset="0.792969" stop-color="rgb(6.704712%, 6.704712%, 6.704712%)" stop-opacity="1"/>
<stop offset="0.804688" stop-color="rgb(6.314087%, 6.314087%, 6.314087%)" stop-opacity="1"/>
<stop offset="0.816406" stop-color="rgb(5.987549%, 5.987549%, 5.987549%)" stop-opacity="1"/>
<stop offset="0.824219" stop-color="rgb(5.728149%, 5.728149%, 5.728149%)" stop-opacity="1"/>
<stop offset="0.832031" stop-color="rgb(5.467224%, 5.467224%, 5.467224%)" stop-opacity="1"/>
<stop offset="0.839844" stop-color="rgb(5.206299%, 5.206299%, 5.206299%)" stop-opacity="1"/>
<stop offset="0.847656" stop-color="rgb(4.946899%, 4.946899%, 4.946899%)" stop-opacity="1"/>
<stop offset="0.855469" stop-color="rgb(4.685974%, 4.685974%, 4.685974%)" stop-opacity="1"/>
<stop offset="0.863281" stop-color="rgb(4.425049%, 4.425049%, 4.425049%)" stop-opacity="1"/>
<stop offset="0.871094" stop-color="rgb(4.165649%, 4.165649%, 4.165649%)" stop-opacity="1"/>
<stop offset="0.878906" stop-color="rgb(3.840637%, 3.840637%, 3.840637%)" stop-opacity="1"/>
<stop offset="0.890625" stop-color="rgb(3.450012%, 3.450012%, 3.450012%)" stop-opacity="1"/>
<stop offset="0.902344" stop-color="rgb(3.059387%, 3.059387%, 3.059387%)" stop-opacity="1"/>
<stop offset="0.914062" stop-color="rgb(2.732849%, 2.732849%, 2.732849%)" stop-opacity="1"/>
<stop offset="0.921875" stop-color="rgb(2.471924%, 2.471924%, 2.471924%)" stop-opacity="1"/>
<stop offset="0.929688" stop-color="rgb(2.212524%, 2.212524%, 2.212524%)" stop-opacity="1"/>
<stop offset="0.9375" stop-color="rgb(1.951599%, 1.951599%, 1.951599%)" stop-opacity="1"/>
<stop offset="0.945312" stop-color="rgb(1.626587%, 1.626587%, 1.626587%)" stop-opacity="1"/>
<stop offset="0.957031" stop-color="rgb(1.300049%, 1.300049%, 1.300049%)" stop-opacity="1"/>
<stop offset="0.964844" stop-color="rgb(1.040649%, 1.040649%, 1.040649%)" stop-opacity="1"/>
<stop offset="0.972656" stop-color="rgb(0.715637%, 0.715637%, 0.715637%)" stop-opacity="1"/>
<stop offset="0.984375" stop-color="rgb(0.389099%, 0.389099%, 0.389099%)" stop-opacity="1"/>
<stop offset="0.992188" stop-color="rgb(0.1297%, 0.1297%, 0.1297%)" stop-opacity="1"/>
<stop offset="1" stop-color="rgb(0%, 0%, 0%)" stop-opacity="1"/>
</radialGradient>
</defs>
<g clip-path="url(#clip-0)">

</g>
<path fill-rule="evenodd" fill="rgb(100%, 100%, 99.609375%)" fill-opacity="1" d="M 1526.898438 1103.601562 C 1428.101562 1103.601562 1347.101562 1184.101562 1347.101562 1283.398438 L 1347.101562 2590.5 C 1347.101562 2689.300781 1427.601562 2770.300781 1526.898438 2770.300781 L 2345.601562 2770.300781 C 2444.398438 2770.300781 2525.398438 2689.800781 2525.398438 2590.5 L 2525.398438 1283.398438 C 2525.398438 1184.601562 2444.898438 1103.601562 2345.601562 1103.601562 Z M 2346.101562 2829.898438 L 1527.398438 2829.898438 C 1395.199219 2829.898438 1287.601562 2722.300781 1287.601562 2590.101562 L 1287.601562 1282.898438 C 1287.601562 1150.699219 1395.199219 1043.101562 1527.398438 1043.101562 L 2346.101562 1043.101562 C 2478.300781 1043.101562 2585.898438 1150.699219 2585.898438 1282.898438 L 2585.898438 2590 C 2585.398438 2722.199219 2477.800781 2829.898438 2346.101562 2829.898438 "/>
<path fill-rule="evenodd" fill="rgb(100%, 100%, 99.609375%)" fill-opacity="1" d="M 1347.601562 1291.300781 L 2525.398438 1291.300781 L 2525.398438 1283.398438 C 2525.398438 1184.601562 2444.898438 1103.601562 2345.601562 1103.601562 L 1526.898438 1103.601562 C 1428.101562 1103.601562 1347.101562 1184.101562 1347.101562 1283.398438 L 1347.101562 1291.300781 Z M 2555.398438 1351.300781 L 1317.601562 1351.300781 C 1300.898438 1351.300781 1287.601562 1338 1287.601562 1321.300781 L 1287.601562 1283.300781 C 1287.601562 1151.101562 1395.199219 1043.5 1527.398438 1043.5 L 2346.101562 1043.5 C 2478.300781 1043.5 2585.898438 1151.101562 2585.898438 1283.300781 L 2585.898438 1321.300781 C 2585.398438 1338 2572.101562 1351.300781 2555.398438 1351.300781 "/>
<path fill-rule="evenodd" fill="rgb(100%, 100%, 99.609375%)" fill-opacity="1" d="M 1347.601562 2582.5 L 1347.601562 2590.398438 C 1347.601562 2689.199219 1428.101562 2770.199219 1527.398438 2770.199219 L 2346.101562 2770.199219 C 2444.898438 2770.199219 2525.898438 2689.699219 2525.898438 2590.398438 L 2525.898438 2582.5 Z M 2346.101562 2829.898438 L 1527.398438 2829.898438 C 1395.199219 2829.898438 1287.601562 2722.300781 1287.601562 2590.101562 L 1287.601562 2552.101562 C 1287.601562 2535.398438 1300.898438 2522.101562 1317.601562 2522.101562 L 2555.5 2522.101562 C 2572.199219 2522.101562 2585.5 2535.398438 2585.5 2552.101562 L 2585.5 2590.101562 C 2585.398438 2722.199219 2477.800781 2829.898438 2346.101562 2829.898438 "/>
<path fill-rule="evenodd" fill="rgb(100%, 100%, 99.609375%)" fill-opacity="1" d="M 1765.101562 1227.5 L 1695.5 1227.5 C 1678.800781 1227.5 1665.5 1214.199219 1665.5 1197.5 C 1665.5 1180.800781 1678.800781 1167.5 1695.5 1167.5 L 1765.101562 1167.5 C 1781.800781 1167.5 1795.101562 1180.800781 1795.101562 1197.5 C 1795.101562 1214.199219 1781.300781 1227.5 1765.101562 1227.5 "/>
<path fill-rule="evenodd" fill="rgb(100%, 100%, 99.609375%)" fill-opacity="1" d="M 2177.601562 1227.5 L 1855.601562 1227.5 C 1838.898438 1227.5 1825.601562 1214.199219 1825.601562 1197.5 C 1825.601562 1180.800781 1838.898438 1167.5 1855.601562 1167.5 L 2177.601562 1167.5 C 2194.300781 1167.5 2207.601562 1180.800781 2207.601562 1197.5 C 2207.601562 1214.199219 2194.199219 1227.5 2177.601562 1227.5 "/>
<path fill-rule="evenodd" fill="rgb(100%, 100%, 99.609375%)" fill-opacity="1" d="M 2011.601562 2706 L 1861.5 2706 C 1844.800781 2706 1831.5 2692.699219 1831.5 2676 C 1831.5 2659.300781 1844.800781 2646 1861.5 2646 L 2011.601562 2646 C 2028.300781 2646 2041.601562 2659.300781 2041.601562 2676 C 2041.601562 2692.699219 2028.300781 2706 2011.601562 2706 "/>
<path fill-rule="evenodd" fill="rgb(100%, 100%, 99.609375%)" fill-opacity="1" d="M 2583.398438 2621.300781 L 2605.5 2621.300781 C 2610.5 2621.300781 2615.101562 2617.101562 2615.101562 2611.699219 L 2615.101562 2560 C 2615.101562 2547.101562 2623.398438 2535.398438 2636 2531.199219 C 2651 2526.601562 2665.199219 2520.398438 2679 2513.300781 C 2690.699219 2507 2704.898438 2509.5 2714 2518.699219 L 2750.699219 2555.398438 C 2753.199219 2557.898438 2756.101562 2558.300781 2757.398438 2558.300781 C 2758.699219 2558.300781 2761.601562 2557.898438 2764.101562 2555.398438 L 2835 2484.5 C 2837.5 2482 2837.898438 2479.101562 2837.898438 2477.800781 C 2837.898438 2476.601562 2837.5 2473.601562 2835 2471.101562 L 2798.300781 2434.398438 C 2789.101562 2425.199219 2787 2411 2792.898438 2399.398438 C 2800 2385.601562 2806.199219 2371 2810.800781 2356.398438 C 2814.5 2343.898438 2826.199219 2335.5 2839.601562 2335.5 L 2891.300781 2335.5 C 2896.300781 2335.5 2900.898438 2331.300781 2900.898438 2325.898438 L 2900.898438 2225.398438 C 2900.898438 2220.398438 2896.699219 2215.800781 2891.300781 2215.800781 L 2839.601562 2215.800781 C 2826.699219 2215.800781 2815 2207.5 2810.800781 2194.898438 C 2806.199219 2179.898438 2800 2165.699219 2792.898438 2151.898438 C 2786.601562 2140.199219 2789.199219 2126 2798.300781 2116.898438 L 2835 2080.199219 C 2837.5 2077.699219 2837.898438 2074.800781 2837.898438 2073.5 C 2837.898438 2072.300781 2837.5 2069.300781 2835 2066.800781 L 2764.101562 1995.898438 C 2761.601562 1993.398438 2758.699219 1993 2757.398438 1993 C 2756.101562 1993 2753.199219 1993.398438 2750.699219 1995.898438 L 2714 2032.601562 C 2704.800781 2041.800781 2690.601562 2043.898438 2679 2038 C 2665.199219 2030.898438 2650.601562 2024.699219 2636 2020.101562 C 2623.5 2016.398438 2615.101562 2004.699219 2615.101562 1991.300781 L 2615.101562 1939.601562 C 2615.101562 1934.601562 2610.898438 1930 2605.5 1930 L 2585.5 1930 L 2585.5 2591.101562 C 2585.5 2593.199219 2585.5 2595.300781 2585.5 2596.898438 L 2585.5 2597.300781 C 2585.5 2599 2585.5 2601 2585.101562 2603.101562 C 2585.101562 2605.199219 2584.699219 2607.300781 2584.699219 2608.898438 C 2584.699219 2608.898438 2584.699219 2609.300781 2584.699219 2609.699219 C 2584.699219 2611.398438 2584.300781 2613 2584.300781 2614.699219 L 2584.300781 2615.5 C 2584.300781 2617.199219 2583.898438 2618.800781 2583.898438 2620.5 Z M 2605.898438 2681.398438 L 2546.699219 2681.398438 C 2537.101562 2681.398438 2527.898438 2676.800781 2522.5 2668.898438 C 2517.101562 2661.398438 2515.398438 2651.398438 2518.300781 2642.601562 L 2520.800781 2634.300781 C 2521.199219 2633.5 2521.199219 2632.601562 2521.199219 2631.800781 L 2521.601562 2630.101562 C 2522 2629.300781 2522 2628.398438 2522 2627.601562 L 2522.398438 2625.898438 C 2522.398438 2625.101562 2522.800781 2623.800781 2522.800781 2623 L 2523.199219 2621.699219 C 2523.199219 2620.398438 2523.601562 2619.601562 2523.601562 2618.398438 L 2523.601562 2617.601562 C 2523.601562 2616.300781 2524 2615.101562 2524 2613.800781 L 2524 2613 C 2524 2611.800781 2524.398438 2610.5 2524.398438 2609.300781 L 2524.398438 2608.5 C 2524.398438 2607.199219 2524.800781 2606 2524.800781 2604.300781 C 2524.800781 2604.300781 2524.800781 2603.898438 2524.800781 2603.5 C 2524.800781 2602.199219 2524.800781 2601 2525.199219 2599.699219 C 2525.199219 2598 2525.199219 2596.398438 2525.199219 2595.101562 C 2525.199219 2595.101562 2525.199219 2595.101562 2525.199219 2594.699219 C 2525.199219 2593.398438 2525.199219 2591.800781 2525.199219 2590.101562 L 2525.199219 1899 C 2525.199219 1882.300781 2538.5 1869 2555.199219 1869 L 2605.199219 1869 C 2643.601562 1869 2674.800781 1900.300781 2674.800781 1938.601562 L 2674.800781 1969 C 2678.601562 1970.699219 2682.699219 1972.300781 2686.5 1974 L 2708.199219 1952.300781 C 2721.101562 1939.398438 2738.601562 1931.898438 2757.398438 1931.898438 C 2776.199219 1931.898438 2793.699219 1939 2806.601562 1952.300781 L 2877.5 2023.199219 C 2890.398438 2036.101562 2897.898438 2053.601562 2897.898438 2072.398438 C 2897.898438 2091.199219 2890.800781 2108.699219 2877.5 2121.601562 L 2855.800781 2143.300781 C 2857.5 2147.101562 2859.101562 2151.199219 2860.800781 2155 L 2891.199219 2155 C 2929.601562 2155 2960.800781 2186.300781 2960.800781 2224.601562 L 2960.800781 2325.101562 C 2960.800781 2363.5 2929.5 2394.699219 2891.199219 2394.699219 L 2860.800781 2394.699219 C 2859.101562 2398.398438 2857.5 2402.601562 2855.800781 2406.398438 L 2877.5 2428.101562 C 2890.398438 2441 2897.898438 2458.5 2897.898438 2477.300781 C 2897.898438 2496.101562 2890.800781 2513.601562 2877.5 2526.5 L 2806.601562 2597.398438 C 2793.699219 2610.300781 2776.199219 2617.800781 2757.398438 2617.800781 C 2738.601562 2617.800781 2721.101562 2610.699219 2708.199219 2597.398438 L 2686.5 2575.699219 C 2682.800781 2577.398438 2678.601562 2579 2674.800781 2580.699219 L 2674.800781 2611.101562 C 2675.101562 2650.101562 2644.300781 2681.398438 2605.898438 2681.398438 "/>
<path fill-rule="evenodd" fill="rgb(100%, 100%, 99.609375%)" fill-opacity="1" d="M 2585.398438 2147.5 L 2585.398438 2403.199219 C 2643.398438 2389.398438 2686.800781 2337.300781 2686.800781 2275.601562 C 2686.800781 2213.800781 2643.398438 2160.898438 2585.398438 2147.5 Z M 2555.398438 2466.601562 C 2538.699219 2466.601562 2525.398438 2453.300781 2525.398438 2436.601562 L 2525.398438 2113.800781 C 2525.398438 2097.101562 2538.699219 2083.800781 2555.398438 2083.800781 C 2660.898438 2083.800781 2746.800781 2169.699219 2746.800781 2275.199219 C 2746.800781 2380.699219 2660.898438 2466.601562 2555.398438 2466.601562 "/>
<path fill-rule="evenodd" fill="rgb(100%, 100%, 99.609375%)" fill-opacity="1" d="M 1179.898438 1833.101562 C 1184.5 1833.101562 1189.5 1834.398438 1193.699219 1836.398438 C 1207.5 1843.5 1222.101562 1849.699219 1236.699219 1854.300781 C 1249.199219 1858.101562 1257.601562 1869.699219 1257.601562 1883.101562 L 1257.601562 1934.800781 C 1257.601562 1939.800781 1261.800781 1944.398438 1267.199219 1944.398438 L 1287.199219 1944.398438 L 1287.199219 1283.300781 C 1287.199219 1281.199219 1287.199219 1279.101562 1287.199219 1277 C 1287.199219 1274.898438 1287.199219 1272.800781 1287.601562 1270.699219 C 1287.601562 1268.601562 1288 1266.5 1288 1264.398438 C 1288 1262.300781 1288.398438 1260.199219 1288.398438 1258.601562 L 1288.398438 1257.800781 C 1288.398438 1256.101562 1288.800781 1254.5 1288.800781 1252.800781 L 1288.800781 1252 L 1266.699219 1252 C 1261.699219 1252 1257.101562 1256.199219 1257.101562 1261.601562 L 1257.101562 1313.300781 C 1257.101562 1326.199219 1248.800781 1337.898438 1236.199219 1342.101562 C 1221.601562 1346.699219 1207 1352.898438 1193.199219 1360 C 1181.5 1366.300781 1167.300781 1363.699219 1158.199219 1354.601562 L 1121.5 1317.898438 C 1117.800781 1314.101562 1111.5 1314.101562 1108.199219 1317.898438 L 1037.300781 1388.800781 C 1034.800781 1391.300781 1034.398438 1394.199219 1034.398438 1395.5 C 1034.398438 1396.800781 1034.800781 1399.699219 1037.300781 1402.199219 L 1074 1438.898438 C 1083.199219 1448.101562 1085.300781 1462.300781 1079.398438 1473.898438 C 1072.300781 1487.699219 1066.101562 1502.300781 1061.5 1516.898438 C 1057.800781 1529.398438 1046.101562 1537.800781 1032.699219 1537.800781 L 980.898438 1537.800781 C 975.898438 1537.800781 971.300781 1542 971.300781 1547.398438 L 971.300781 1647.898438 C 971.300781 1652.898438 975.5 1657.5 980.898438 1657.5 L 1032.601562 1657.5 C 1045.5 1657.5 1057.199219 1665.800781 1061.398438 1678.398438 C 1066 1693 1072.199219 1707.601562 1079.300781 1721.398438 C 1085.601562 1733.101562 1083 1747.300781 1073.898438 1756.398438 L 1037.199219 1793.101562 C 1034.699219 1795.601562 1034.300781 1798.5 1034.300781 1799.800781 C 1034.300781 1801.5 1034.699219 1804 1037.199219 1806.5 L 1108.101562 1877.398438 C 1110.601562 1879.898438 1113.5 1880.300781 1114.800781 1880.300781 C 1116.5 1880.300781 1119 1879.898438 1121.5 1877.398438 L 1158.199219 1840.699219 C 1164.5 1836 1172 1833.101562 1179.898438 1833.101562 Z M 1317.601562 2004.5 L 1267.5 2004.5 C 1229.101562 2004.5 1197.898438 1973.199219 1197.898438 1934.898438 L 1197.898438 1904.5 C 1194.101562 1902.800781 1190 1901.199219 1186.199219 1899.5 L 1164.5 1921.199219 C 1137.398438 1948.300781 1093.199219 1948.300781 1066.101562 1921.199219 L 995.199219 1850.300781 C 968.101562 1823.199219 968.101562 1779 995.199219 1751.898438 L 1016.898438 1730.199219 C 1015.199219 1726.5 1013.601562 1722.300781 1011.898438 1718.5 L 981.5 1718.5 C 943.101562 1718.5 911.898438 1687.199219 911.898438 1648.898438 L 911.898438 1548.398438 C 911.898438 1510 943.199219 1478.800781 981.5 1478.800781 L 1011.898438 1478.800781 C 1013.601562 1475 1015.199219 1470.898438 1016.898438 1467.101562 L 995.199219 1445.398438 C 982.300781 1432.5 974.800781 1415 974.800781 1396.199219 C 974.800781 1377.398438 981.898438 1359.898438 995.199219 1347 L 1066.101562 1276.101562 C 1079 1263.199219 1096.5 1255.699219 1115.300781 1255.699219 C 1134.101562 1255.699219 1151.601562 1262.800781 1164.5 1276.101562 L 1186.199219 1297.800781 C 1189.898438 1296.101562 1194.101562 1294.5 1197.898438 1292.800781 L 1197.898438 1262.398438 C 1197.898438 1224 1229.199219 1192.800781 1267.5 1192.800781 L 1326.699219 1192.800781 C 1336.300781 1192.800781 1345.101562 1197.398438 1350.898438 1204.898438 C 1356.699219 1212.398438 1358.398438 1222.398438 1355.5 1231.601562 L 1352.199219 1244.101562 L 1351.398438 1248.300781 C 1351.398438 1249.101562 1351 1250.398438 1351 1251.199219 L 1350.601562 1252.5 C 1350.601562 1253.300781 1350.199219 1254.601562 1350.199219 1255.800781 L 1350.199219 1257.101562 C 1350.199219 1258.398438 1349.800781 1259.199219 1349.800781 1260.398438 L 1349.800781 1261.199219 C 1349.800781 1262.5 1349.398438 1263.699219 1349.398438 1264.898438 L 1349.398438 1265.699219 C 1349.398438 1267 1349 1268.199219 1349 1269.898438 C 1349 1271.601562 1348.601562 1272.800781 1348.601562 1274.5 C 1348.601562 1276.199219 1348.601562 1277.800781 1348.601562 1279.101562 C 1348.601562 1280.800781 1348.601562 1282.398438 1348.601562 1283.699219 L 1348.601562 1974.800781 C 1347.601562 1990.699219 1334.199219 2004.5 1317.601562 2004.5 "/>
<path fill-rule="evenodd" fill="rgb(100%, 100%, 99.609375%)" fill-opacity="1" d="M 1287.5 1470.601562 C 1229.5 1484.398438 1186.101562 1536.5 1186.101562 1598.199219 C 1186.101562 1659.898438 1229.5 1712.5 1287.5 1725.800781 Z M 1317.601562 1789.699219 C 1212.101562 1789.699219 1126.199219 1703.800781 1126.199219 1598.300781 C 1126.199219 1492.800781 1212.101562 1406.898438 1317.601562 1406.898438 C 1334.300781 1406.898438 1347.601562 1420.199219 1347.601562 1436.898438 L 1347.601562 1759.699219 C 1347.601562 1776.300781 1334.199219 1789.699219 1317.601562 1789.699219 "/>
<path fill-rule="evenodd" fill="rgb(100%, 100%, 99.609375%)" fill-opacity="1" d="M 1785.898438 1906 C 1778.398438 1906 1770.5 1903.101562 1764.601562 1897.199219 L 1586.5 1719.101562 C 1574.800781 1707.398438 1574.800781 1688.199219 1586.5 1676.601562 L 1764.601562 1498.5 C 1776.300781 1486.800781 1795.5 1486.800781 1807.101562 1498.5 C 1818.800781 1510.199219 1818.800781 1529.398438 1807.101562 1541 L 1650.300781 1697.800781 L 1807.101562 1854.601562 C 1818.800781 1866.300781 1818.800781 1885.5 1807.101562 1897.101562 C 1801.398438 1903.101562 1793.898438 1906 1785.898438 1906 "/>
<path fill-rule="evenodd" fill="rgb(100%, 100%, 99.609375%)" fill-opacity="1" d="M 2087.101562 1906 C 2079.601562 1906 2071.699219 1903.101562 2065.800781 1897.199219 C 2054.101562 1885.5 2054.101562 1866.300781 2065.800781 1854.699219 L 2222.601562 1697.898438 L 2065.800781 1541.101562 C 2054.101562 1529.398438 2054.101562 1510.199219 2065.800781 1498.601562 C 2077.5 1486.898438 2096.699219 1486.898438 2108.300781 1498.601562 L 2286.398438 1676.699219 C 2292.199219 1682.101562 2295.199219 1690 2295.199219 1698 C 2295.199219 1705.898438 2291.898438 1713.398438 2286.398438 1719.300781 L 2108.300781 1897.398438 C 2102.101562 1903.101562 2094.601562 1906 2087.101562 1906 "/>
<path fill-rule="evenodd" fill="rgb(100%, 100%, 99.609375%)" fill-opacity="1" d="M 1881.398438 1958.601562 C 1878.898438 1958.601562 1876.800781 1958.199219 1874.300781 1957.800781 C 1858 1954.101562 1848 1937.800781 1852.199219 1921.5 L 1962.300781 1460.601562 C 1966 1444.300781 1982.300781 1434.300781 1998.601562 1438.5 C 2014.898438 1442.199219 2024.898438 1458.5 2020.699219 1474.800781 L 1910.601562 1935.699219 C 1907.300781 1949 1895.199219 1958.601562 1881.398438 1958.601562 "/>
<path fill-rule="evenodd" fill="rgb(100%, 100%, 99.609375%)" fill-opacity="1" d="M 2282.699219 2142.101562 L 1590.398438 2142.101562 C 1573.699219 2142.101562 1560.398438 2128.800781 1560.398438 2112.101562 C 1560.398438 2095.398438 1573.699219 2082.101562 1590.398438 2082.101562 L 2282.699219 2082.101562 C 2299.398438 2082.101562 2312.699219 2095.398438 2312.699219 2112.101562 C 2312.699219 2128.800781 2299.300781 2142.101562 2282.699219 2142.101562 "/>
<path fill-rule="evenodd" fill="rgb(100%, 100%, 99.609375%)" fill-opacity="1" d="M 2282.699219 2288.898438 L 1590.398438 2288.898438 C 1573.699219 2288.898438 1560.398438 2275.601562 1560.398438 2258.898438 C 1560.398438 2242.199219 1573.699219 2228.898438 1590.398438 2228.898438 L 2282.699219 2228.898438 C 2299.398438 2228.898438 2312.699219 2242.199219 2312.699219 2258.898438 C 2312.699219 2275.601562 2299.300781 2288.898438 2282.699219 2288.898438 "/>
<path fill-rule="evenodd" fill="rgb(100%, 100%, 99.609375%)" fill-opacity="1" d="M 2282.699219 2436.101562 L 1590.398438 2436.101562 C 1573.699219 2436.101562 1560.398438 2422.800781 1560.398438 2406.101562 C 1560.398438 2389.398438 1573.699219 2376.101562 1590.398438 2376.101562 L 2282.699219 2376.101562 C 2299.398438 2376.101562 2312.699219 2389.398438 2312.699219 2406.101562 C 2312.699219 2422.800781 2299.300781 2436.101562 2282.699219 2436.101562 "/>
</svg>
